<?xml version="1.0" encoding="UTF-8"?>
<!DOCTYPE svg PUBLIC "-//W3C//DTD SVG 1.1//EN" "http://www.w3.org/Graphics/SVG/1.1/DTD/svg11.dtd">
<!-- Creator: CorelDRAW X7 -->
<svg xmlns="http://www.w3.org/2000/svg" xml:space="preserve" width="45.299mm" height="14.4424mm" version="1.1" style="shape-rendering:geometricPrecision; text-rendering:geometricPrecision; image-rendering:optimizeQuality; fill-rule:evenodd; clip-rule:evenodd"
viewBox="0 0 18634212 5941030"
 xmlns:xlink="http://www.w3.org/1999/xlink">
 <defs>
  <style type="text/css">
   <![CDATA[
    .str0 {stroke:#EF7F1A;stroke-width:308520;stroke-linecap:round;stroke-linejoin:round}
    .fil0 {fill:none;fill-rule:nonzero}
    .fil1 {fill:#FEFEFE;fill-rule:nonzero}
   ]]>
  </style>
 </defs>
 <g id="Слой_x0020_1">
  <metadata id="CorelCorpID_0Corel-Layer"/>
  <g>
   <path class="fil0 str0" d="M1678679 874881l-474668 698490 470678 734772 -483513 0 -213660 -395482c-29660,-54423 -49981,-96875 -61046,-128303l-5307 0c-15508,41588 -34965,83177 -58413,124765l-217651 399020 -480839 0 484829 -712641 -456075 -720621 484830 0 212344 411813c20773,39820 40272,84082 58372,132293l5306 0c8433,-29206 28343,-73880 59277,-133609l219009 -410497 456527 0zm1527916 1433262l-419793 0 0 -1134244 -253933 0c-56151,478206 -138464,789195 -246405,933870 -107941,144635 -242414,217198 -402968,217198 -61499,0 -117238,-8844 -167218,-26985l0 -289309c33608,14603 68121,22090 103498,22090 83177,0 154383,-75197 214113,-226043 59277,-150846 114111,-460929 164544,-929839l1008162 0 0 1433262zm345090 -1896001c0,-64131 22543,-115880 68121,-156152 45127,-40273 103087,-60182 174294,-60182 72564,0 130936,20362 176062,61498 45126,41136 67257,92474 67257,154836 0,62815 -22583,115469 -68573,157469 -45579,42041 -103951,62814 -174746,62814 -70343,0 -127851,-21226 -173841,-63678 -45579,-42041 -68574,-94654 -68574,-156605zm30976 1896001l0 -1433262 417119 0 0 1433262 -417119 0zm2059640 -1818131c-43358,32745 -103499,55287 -180053,67217 -233570,36282 -383511,64583 -449863,84946 -66353,20362 -122997,62814 -168987,127398 -46443,65036 -77871,176062 -94243,333120l6664 0c106131,-127851 250354,-191571 432628,-191571 199057,0 355662,60635 470678,182726 115017,121640 172525,289310 172525,502971 0,226042 -69438,406958 -207490,542790 -138464,135790 -323371,203499 -554720,203499 -245500,0 -432627,-79186 -561383,-237149 -128715,-157921 -192846,-387049 -192846,-686972 0,-228716 25628,-420245 77829,-573312 51791,-153520 117691,-268536 198194,-344597 80092,-76554 164996,-129620 254385,-159731 89800,-29618 219831,-57508 391039,-83589 143318,-21678 238425,-39367 284867,-53518 46895,-14603 87167,-30975 120776,-49980l0 335752zm-899316 912151l-1358 51749c-5306,202184 23900,347723 88031,435754 63720,88031 147308,132252 249943,132252 96011,0 174293,-37146 234928,-111478 60141,-74292 90664,-172525 90664,-294617 0,-122544 -30976,-219831 -92022,-291942 -61457,-72112 -143318,-108393 -245047,-108393 -64172,0 -126082,16824 -186264,50885 -59688,33608 -106172,78734 -138875,135790zm1298376 195972c0,-236203 70754,-421562 211892,-556036 141549,-134926 331310,-202183 569775,-202183 230444,0 413623,66352 549413,198604 135790,132746 203500,310989 203500,534851 0,234887 -69479,422015 -208807,560931 -138916,139328 -327360,208806 -564921,208806 -233118,0 -418477,-66804 -555172,-200414 -137106,-133158 -205680,-314979 -205680,-544559zm423784 -5307c0,285772 116785,429090 349903,429090 223862,0 335752,-146855 335752,-441019 0,-279602 -112795,-419834 -338385,-419834 -109710,0 -194656,37598 -255701,112836 -61046,75196 -91569,181368 -91569,318927zm2658169 -1102816c-43357,32745 -103498,55287 -180052,67217 -233571,36282 -383512,64583 -449864,84946 -66352,20362 -122997,62814 -168987,127398 -46442,65036 -77870,176062 -94243,333120l6665 0c106130,-127851 250353,-191571 432627,-191571 199057,0 355662,60635 470679,182726 115016,121640 172524,289310 172524,502971 0,226042 -69437,406958 -207490,542790 -138464,135790 -323370,203499 -554719,203499 -245500,0 -432628,-79186 -561384,-237149 -128714,-157921 -192846,-387049 -192846,-686972 0,-228716 25628,-420245 77830,-573312 51790,-153520 117690,-268536 198193,-344597 80092,-76554 164997,-129620 254385,-159731 89800,-29618 219831,-57508 391040,-83589 143318,-21678 238424,-39367 284867,-53518 46895,-14603 87167,-30975 120775,-49980l0 335752zm-899316 912151l-1357 51749c-5307,202184 23900,347723 88031,435754 63719,88031 147308,132252 249942,132252 96012,0 174294,-37146 234928,-111478 60141,-74292 90664,-172525 90664,-294617 0,-122544 -30975,-219831 -92021,-291942 -61458,-72112 -143318,-108393 -245048,-108393 -64172,0 -126082,16824 -186264,50885 -59688,33608 -106172,78734 -138875,135790zm2724110 -527282l-591001 1561565c-137147,362738 -342828,544559 -617082,544559 -107941,0 -191570,-11518 -251300,-34061l0 -335341c56192,31840 118143,47800 185359,47800 114153,0 194656,-55328 241099,-165901l79187 -188033 -579525 -1430588 464056 0 280013 898000c17277,54423 29659,115469 37639,182685l7487 0c6211,-45538 20362,-105720 42905,-180053l286224 -900632 414939 0zm1505826 1433262l-419793 0 0 -1134244 -253933 0c-56151,478206 -138464,789195 -246405,933870 -107941,144635 -242414,217198 -402968,217198 -61499,0 -117238,-8844 -167218,-26985l0 -289309c33608,14603 68121,22090 103498,22090 83177,0 154384,-75197 214113,-226043 59277,-150846 114111,-460929 164544,-929839l1008162 0 0 1433262zm296879 -710008c0,-236203 70754,-421562 211892,-556036 141549,-134926 331309,-202183 569775,-202183 230444,0 413623,66352 549413,198604 135790,132746 203500,310989 203500,534851 0,234887 -69479,422015 -208807,560931 -138916,139328 -327360,208806 -564921,208806 -233118,0 -418477,-66804 -555172,-200414 -137106,-133158 -205680,-314979 -205680,-544559zm423783 -5307c0,285772 116785,429090 349903,429090 223863,0 335753,-146855 335753,-441019 0,-279602 -112795,-419834 -338385,-419834 -109710,0 -194656,37598 -255702,112836 -61046,75196 -91569,181368 -91569,318927zm2733366 715315l-418888 0 0 -504287c-149982,84905 -295974,126946 -437975,126946 -323823,0 -485693,-164997 -485693,-495031l0 -560890 401652 0 0 498980c0,153479 68121,230485 204816,230485 97328,0 203500,-29659 317200,-89388l0 -640077 418888 0 0 1433262zm1740301 0l-419793 0 0 -605152 -521111 0 0 605152 -418477 0 0 -1433262 418477 0 0 536579 521111 0 0 -536579 419793 0 0 1433262zm345954 -1896001c0,-64131 22543,-115880 68122,-156152 45126,-40273 103087,-60182 174293,-60182 72564,0 130936,20362 176062,61498 45126,41136 67258,92474 67258,154836 0,62815 -22584,115469 -68574,157469 -45579,42041 -103951,62814 -174746,62814 -70343,0 -127851,-21226 -173841,-63678 -45579,-42041 -68574,-94654 -68574,-156605zm30976 1896001l0 -1433262 417119 0 0 1433262 -417119 0zm-17691785 2819052l0 -1433261 779898 0c337973,0 506960,116332 506960,349903 0,80955 -26080,151298 -78282,209670 -52654,58825 -122544,97328 -210575,115469 108805,15467 191982,53065 249942,112795 57920,59729 86674,131841 86674,216334 0,129620 -46443,233571 -139328,311853 -92885,78323 -217198,117237 -373803,117237l-821486 0zm417160 -1171389l0 312304 231802 0c140232,0 210122,-54834 210122,-164996 0,-98192 -65447,-147308 -196835,-147308l-245089 0zm0 566237l0 337974 270716 0c146897,0 220325,-58866 220325,-177420 0,-107036 -76554,-160554 -229169,-160554l-261872 0zm2627235 605152l-380015 0 0 -961719c-35377,72564 -73839,139780 -115016,200826l-506919 760893 -397703 0 0 -1433261 382194 0 0 932924c32745,-65448 64173,-122503 94696,-171167l509140 -761757 413623 0 0 1433261zm803346 -172524l0 832099 -418477 0 0 -2092836 418477 0 0 218967 5306 0c109710,-169440 264546,-253933 464920,-253933 182726,0 325139,63720 427773,191118 103087,127398 154384,300787 154384,520206 0,239330 -59689,431312 -178695,575534 -119459,144223 -275612,216335 -469362,216335 -175157,0 -308315,-69026 -399020,-207490l-5306 0zm-6623 -461382c0,102182 27849,185359 83136,250354 55328,64583 126987,97328 215018,97328 104403,0 186223,-40684 244183,-122092 58372,-80956 87579,-195972 87579,-344597 0,-262777 -102182,-394165 -306998,-394165 -95107,0 -172525,36282 -232666,108846 -60182,72523 -90252,165860 -90252,280013l0 124313zm1270034 -76102c0,-236203 70754,-421562 211891,-556035 141550,-134927 331310,-202184 569776,-202184 230444,0 413622,66352 549412,198605 135791,132746 203500,310988 203500,534850 0,234887 -69478,422015 -208806,560931 -138916,139328 -327361,208807 -564921,208807 -233118,0 -418477,-66805 -555172,-200415 -137107,-133157 -205680,-314979 -205680,-544559zm423783 -5306c0,285772 116785,429090 349903,429090 223863,0 335753,-146856 335753,-441020 0,-279601 -112795,-419834 -338385,-419834 -109710,0 -194656,37598 -255702,112836 -61046,75197 -91569,181369 -91569,318928zm2658169 -1102816c-43357,32744 -103498,55287 -180052,67216 -233570,36282 -383511,64584 -449864,84946 -66352,20362 -122996,62815 -168986,127398 -46443,65036 -77871,176063 -94243,333120l6664 0c106131,-127851 250354,-191571 432628,-191571 199057,0 355662,60635 470678,182727 115016,121639 172525,289309 172525,502970 0,226042 -69438,406959 -207491,542790 -138463,135790 -323370,203500 -554719,203500 -245500,0 -432628,-79187 -561383,-237149 -128715,-157922 -192846,-387049 -192846,-686972 0,-228717 25628,-420246 77829,-573313 51791,-153520 117690,-268536 198194,-344597 80092,-76554 164996,-129619 254385,-159731 89800,-29618 219831,-57508 391039,-83588 143318,-21679 238424,-39367 284867,-53518 46895,-14604 87167,-30976 120775,-49981l0 335753zm-899315 912150l-1358 51749c-5307,202184 23900,347723 88031,435754 63720,88031 147308,132253 249943,132253 96011,0 174293,-37146 234928,-111479 60140,-74292 90663,-172524 90663,-294616 0,-122544 -30975,-219831 -92021,-291943 -61457,-72111 -143318,-108393 -245047,-108393 -64173,0 -126082,16825 -186264,50885 -59689,33608 -106172,78735 -138875,135790zm2783839 905980l-380014 0 0 -961719c-35377,72564 -73839,139780 -115017,200826l-506919 760893 -397703 0 0 -1433261 382195 0 0 932924c32744,-65448 64172,-122503 94695,-171167l509141 -761757 413622 0 0 1433261z"/>
   <path id="1" class="fil1" d="M1678679 874881l-474668 698490 470678 734772 -483513 0 -213660 -395482c-29660,-54423 -49981,-96875 -61046,-128303l-5307 0c-15508,41588 -34965,83177 -58413,124765l-217651 399020 -480839 0 484829 -712641 -456075 -720621 484830 0 212344 411813c20773,39820 40272,84082 58372,132293l5306 0c8433,-29206 28343,-73880 59277,-133609l219009 -410497 456527 0zm1527916 1433262l-419793 0 0 -1134244 -253933 0c-56151,478206 -138464,789195 -246405,933870 -107941,144635 -242414,217198 -402968,217198 -61499,0 -117238,-8844 -167218,-26985l0 -289309c33608,14603 68121,22090 103498,22090 83177,0 154383,-75197 214113,-226043 59277,-150846 114111,-460929 164544,-929839l1008162 0 0 1433262zm345090 -1896001c0,-64131 22543,-115880 68121,-156152 45127,-40273 103087,-60182 174294,-60182 72564,0 130936,20362 176062,61498 45126,41136 67257,92474 67257,154836 0,62815 -22583,115469 -68573,157469 -45579,42041 -103951,62814 -174746,62814 -70343,0 -127851,-21226 -173841,-63678 -45579,-42041 -68574,-94654 -68574,-156605zm30976 1896001l0 -1433262 417119 0 0 1433262 -417119 0zm2059640 -1818131c-43358,32745 -103499,55287 -180053,67217 -233570,36282 -383511,64583 -449863,84946 -66353,20362 -122997,62814 -168987,127398 -46443,65036 -77871,176062 -94243,333120l6664 0c106131,-127851 250354,-191571 432628,-191571 199057,0 355662,60635 470678,182726 115017,121640 172525,289310 172525,502971 0,226042 -69438,406958 -207490,542790 -138464,135790 -323371,203499 -554720,203499 -245500,0 -432627,-79186 -561383,-237149 -128715,-157921 -192846,-387049 -192846,-686972 0,-228716 25628,-420245 77829,-573312 51791,-153520 117691,-268536 198194,-344597 80092,-76554 164996,-129620 254385,-159731 89800,-29618 219831,-57508 391039,-83589 143318,-21678 238425,-39367 284867,-53518 46895,-14603 87167,-30975 120776,-49980l0 335752zm-899316 912151l-1358 51749c-5306,202184 23900,347723 88031,435754 63720,88031 147308,132252 249943,132252 96011,0 174293,-37146 234928,-111478 60141,-74292 90664,-172525 90664,-294617 0,-122544 -30976,-219831 -92022,-291942 -61457,-72112 -143318,-108393 -245047,-108393 -64172,0 -126082,16824 -186264,50885 -59688,33608 -106172,78734 -138875,135790zm1298376 195972c0,-236203 70754,-421562 211892,-556036 141549,-134926 331310,-202183 569775,-202183 230444,0 413623,66352 549413,198604 135790,132746 203500,310989 203500,534851 0,234887 -69479,422015 -208807,560931 -138916,139328 -327360,208806 -564921,208806 -233118,0 -418477,-66804 -555172,-200414 -137106,-133158 -205680,-314979 -205680,-544559zm423784 -5307c0,285772 116785,429090 349903,429090 223862,0 335752,-146855 335752,-441019 0,-279602 -112795,-419834 -338385,-419834 -109710,0 -194656,37598 -255701,112836 -61046,75196 -91569,181368 -91569,318927zm2658169 -1102816c-43357,32745 -103498,55287 -180052,67217 -233571,36282 -383512,64583 -449864,84946 -66352,20362 -122997,62814 -168987,127398 -46442,65036 -77870,176062 -94243,333120l6665 0c106130,-127851 250353,-191571 432627,-191571 199057,0 355662,60635 470679,182726 115016,121640 172524,289310 172524,502971 0,226042 -69437,406958 -207490,542790 -138464,135790 -323370,203499 -554719,203499 -245500,0 -432628,-79186 -561384,-237149 -128714,-157921 -192846,-387049 -192846,-686972 0,-228716 25628,-420245 77830,-573312 51790,-153520 117690,-268536 198193,-344597 80092,-76554 164997,-129620 254385,-159731 89800,-29618 219831,-57508 391040,-83589 143318,-21678 238424,-39367 284867,-53518 46895,-14603 87167,-30975 120775,-49980l0 335752zm-899316 912151l-1357 51749c-5307,202184 23900,347723 88031,435754 63719,88031 147308,132252 249942,132252 96012,0 174294,-37146 234928,-111478 60141,-74292 90664,-172525 90664,-294617 0,-122544 -30975,-219831 -92021,-291942 -61458,-72112 -143318,-108393 -245048,-108393 -64172,0 -126082,16824 -186264,50885 -59688,33608 -106172,78734 -138875,135790zm2724110 -527282l-591001 1561565c-137147,362738 -342828,544559 -617082,544559 -107941,0 -191570,-11518 -251300,-34061l0 -335341c56192,31840 118143,47800 185359,47800 114153,0 194656,-55328 241099,-165901l79187 -188033 -579525 -1430588 464056 0 280013 898000c17277,54423 29659,115469 37639,182685l7487 0c6211,-45538 20362,-105720 42905,-180053l286224 -900632 414939 0zm1505826 1433262l-419793 0 0 -1134244 -253933 0c-56151,478206 -138464,789195 -246405,933870 -107941,144635 -242414,217198 -402968,217198 -61499,0 -117238,-8844 -167218,-26985l0 -289309c33608,14603 68121,22090 103498,22090 83177,0 154384,-75197 214113,-226043 59277,-150846 114111,-460929 164544,-929839l1008162 0 0 1433262zm296879 -710008c0,-236203 70754,-421562 211892,-556036 141549,-134926 331309,-202183 569775,-202183 230444,0 413623,66352 549413,198604 135790,132746 203500,310989 203500,534851 0,234887 -69479,422015 -208807,560931 -138916,139328 -327360,208806 -564921,208806 -233118,0 -418477,-66804 -555172,-200414 -137106,-133158 -205680,-314979 -205680,-544559zm423783 -5307c0,285772 116785,429090 349903,429090 223863,0 335753,-146855 335753,-441019 0,-279602 -112795,-419834 -338385,-419834 -109710,0 -194656,37598 -255702,112836 -61046,75196 -91569,181368 -91569,318927zm2733366 715315l-418888 0 0 -504287c-149982,84905 -295974,126946 -437975,126946 -323823,0 -485693,-164997 -485693,-495031l0 -560890 401652 0 0 498980c0,153479 68121,230485 204816,230485 97328,0 203500,-29659 317200,-89388l0 -640077 418888 0 0 1433262zm1740301 0l-419793 0 0 -605152 -521111 0 0 605152 -418477 0 0 -1433262 418477 0 0 536579 521111 0 0 -536579 419793 0 0 1433262zm345954 -1896001c0,-64131 22543,-115880 68122,-156152 45126,-40273 103087,-60182 174293,-60182 72564,0 130936,20362 176062,61498 45126,41136 67258,92474 67258,154836 0,62815 -22584,115469 -68574,157469 -45579,42041 -103951,62814 -174746,62814 -70343,0 -127851,-21226 -173841,-63678 -45579,-42041 -68574,-94654 -68574,-156605zm30976 1896001l0 -1433262 417119 0 0 1433262 -417119 0zm-17691785 2819052l0 -1433261 779898 0c337973,0 506960,116332 506960,349903 0,80955 -26080,151298 -78282,209670 -52654,58825 -122544,97328 -210575,115469 108805,15467 191982,53065 249942,112795 57920,59729 86674,131841 86674,216334 0,129620 -46443,233571 -139328,311853 -92885,78323 -217198,117237 -373803,117237l-821486 0zm417160 -1171389l0 312304 231802 0c140232,0 210122,-54834 210122,-164996 0,-98192 -65447,-147308 -196835,-147308l-245089 0zm0 566237l0 337974 270716 0c146897,0 220325,-58866 220325,-177420 0,-107036 -76554,-160554 -229169,-160554l-261872 0zm2627235 605152l-380015 0 0 -961719c-35377,72564 -73839,139780 -115016,200826l-506919 760893 -397703 0 0 -1433261 382194 0 0 932924c32745,-65448 64173,-122503 94696,-171167l509140 -761757 413623 0 0 1433261zm803346 -172524l0 832099 -418477 0 0 -2092836 418477 0 0 218967 5306 0c109710,-169440 264546,-253933 464920,-253933 182726,0 325139,63720 427773,191118 103087,127398 154384,300787 154384,520206 0,239330 -59689,431312 -178695,575534 -119459,144223 -275612,216335 -469362,216335 -175157,0 -308315,-69026 -399020,-207490l-5306 0zm-6623 -461382c0,102182 27849,185359 83136,250354 55328,64583 126987,97328 215018,97328 104403,0 186223,-40684 244183,-122092 58372,-80956 87579,-195972 87579,-344597 0,-262777 -102182,-394165 -306998,-394165 -95107,0 -172525,36282 -232666,108846 -60182,72523 -90252,165860 -90252,280013l0 124313zm1270034 -76102c0,-236203 70754,-421562 211891,-556035 141550,-134927 331310,-202184 569776,-202184 230444,0 413622,66352 549412,198605 135791,132746 203500,310988 203500,534850 0,234887 -69478,422015 -208806,560931 -138916,139328 -327361,208807 -564921,208807 -233118,0 -418477,-66805 -555172,-200415 -137107,-133157 -205680,-314979 -205680,-544559zm423783 -5306c0,285772 116785,429090 349903,429090 223863,0 335753,-146856 335753,-441020 0,-279601 -112795,-419834 -338385,-419834 -109710,0 -194656,37598 -255702,112836 -61046,75197 -91569,181369 -91569,318928zm2658169 -1102816c-43357,32744 -103498,55287 -180052,67216 -233570,36282 -383511,64584 -449864,84946 -66352,20362 -122996,62815 -168986,127398 -46443,65036 -77871,176063 -94243,333120l6664 0c106131,-127851 250354,-191571 432628,-191571 199057,0 355662,60635 470678,182727 115016,121639 172525,289309 172525,502970 0,226042 -69438,406959 -207491,542790 -138463,135790 -323370,203500 -554719,203500 -245500,0 -432628,-79187 -561383,-237149 -128715,-157922 -192846,-387049 -192846,-686972 0,-228717 25628,-420246 77829,-573313 51791,-153520 117690,-268536 198194,-344597 80092,-76554 164996,-129619 254385,-159731 89800,-29618 219831,-57508 391039,-83588 143318,-21679 238424,-39367 284867,-53518 46895,-14604 87167,-30976 120775,-49981l0 335753zm-899315 912150l-1358 51749c-5307,202184 23900,347723 88031,435754 63720,88031 147308,132253 249943,132253 96011,0 174293,-37146 234928,-111479 60140,-74292 90663,-172524 90663,-294616 0,-122544 -30975,-219831 -92021,-291943 -61457,-72111 -143318,-108393 -245047,-108393 -64173,0 -126082,16825 -186264,50885 -59689,33608 -106172,78735 -138875,135790zm2783839 905980l-380014 0 0 -961719c-35377,72564 -73839,139780 -115017,200826l-506919 760893 -397703 0 0 -1433261 382195 0 0 932924c32744,-65448 64172,-122503 94695,-171167l509141 -761757 413622 0 0 1433261z"/>
  </g>
 </g>
</svg>
