<?xml version="1.0" encoding="UTF-8"?>
<!DOCTYPE svg PUBLIC "-//W3C//DTD SVG 1.1//EN" "http://www.w3.org/Graphics/SVG/1.1/DTD/svg11.dtd">
<!-- Creator: CorelDRAW X7 -->
<svg xmlns="http://www.w3.org/2000/svg" xml:space="preserve" width="40.8064mm" height="5.2049mm" version="1.1" style="shape-rendering:geometricPrecision; text-rendering:geometricPrecision; image-rendering:optimizeQuality; fill-rule:evenodd; clip-rule:evenodd"
viewBox="0 0 177217 22604"
 xmlns:xlink="http://www.w3.org/1999/xlink">
 <defs>
  <style type="text/css">
   <![CDATA[
    .fil0 {fill:#E31E24;fill-rule:nonzero}
   ]]>
  </style>
 </defs>
 <g id="Слой_x0020_1">
  <metadata id="CorelCorpID_0Corel-Layer"/>
  <path class="fil0" d="M17500 21016l-3629 0 0 -5515 -10303 0 0 5515 -3568 0 0 -8677 1355 0c2171,-3349 3320,-7337 3446,-11970l10317 0 0 11970 2382 0 0 8677zm-6814 -8677l0 -8836 -2425 0c-233,3301 -1101,6248 -2596,8836l5021 0zm8672 -4334c0,-2494 747,-4451 2237,-5870 1495,-1425 3498,-2135 6016,-2135 2432,0 4366,701 5800,2097 1434,1401 2148,3283 2148,5646 0,2480 -733,4456 -2204,5922 -1467,1471 -3456,2205 -5964,2205 -2461,0 -4418,-706 -5861,-2116 -1448,-1406 -2172,-3325 -2172,-5749zm4474 -56c0,3017 1233,4530 3694,4530 2364,0 3545,-1551 3545,-4656 0,-2952 -1191,-4433 -3572,-4433 -1159,0 -2055,397 -2700,1192 -644,794 -967,1914 -967,3367zm26186 6991c-1055,621 -2559,930 -4511,930 -2312,0 -4176,-701 -5600,-2107 -1420,-1405 -2134,-3227 -2134,-5459 0,-2574 766,-4600 2298,-6081 1536,-1485 3577,-2223 6131,-2223 1724,0 3003,234 3830,710l0 3792c-1008,-742 -2115,-1112 -3311,-1112 -1350,0 -2433,412 -3246,1233 -817,823 -1228,1948 -1228,3382 0,1382 387,2475 1163,3274 775,798 1830,1200 3162,1200 1176,0 2325,-378 3446,-1125l0 3586zm14263 -11194l-4105 0 0 11755 -4437 0 0 -11755 -4142 0 0 -3377 12684 0 0 3377zm16635 -3377l-6239 16486c-1448,3830 -3620,5749 -6515,5749 -1139,0 -2022,-121 -2653,-359l0 -3541c593,336 1247,505 1957,505 1205,0 2055,-584 2545,-1752l836 -1985 -6118 -15103 4899 0 2956 9481c183,574 314,1219 398,1928l79 0c65,-480 215,-1116 453,-1901l3022 -9508 4380 0zm16295 15132l-4432 0 0 -11975 -5502 0 0 11975 -4418 0 0 -15132 14352 0 0 15132zm18400 0l-4432 0 0 -6389 -5501 0 0 6389 -4418 0 0 -15132 4418 0 0 5665 5501 0 0 -5665 4432 0 0 15132zm3144 -7496c0,-2494 747,-4451 2237,-5870 1494,-1425 3497,-2135 6015,-2135 2433,0 4367,701 5800,2097 1434,1401 2149,3283 2149,5646 0,2480 -734,4456 -2205,5922 -1466,1471 -3456,2205 -5964,2205 -2461,0 -4418,-706 -5861,-2116 -1447,-1406 -2171,-3325 -2171,-5749zm4474 -56c0,3017 1233,4530 3694,4530 2363,0 3544,-1551 3544,-4656 0,-2952 -1190,-4433 -3572,-4433 -1158,0 -2055,397 -2700,1192 -644,794 -966,1914 -966,3367zm37543 7552l-4432 0 0 -6389 -5501 0 0 6389 -4418 0 0 -15132 4418 0 0 5665 5501 0 0 -5665 4432 0 0 15132zm4418 -14217c683,-382 1598,-691 2742,-929 1144,-238 2125,-355 2937,-355 4232,0 6348,2120 6348,6361l0 9140 -4199 0 0 -2205 -56 0c-1032,1719 -2541,2574 -4530,2574 -1429,0 -2579,-407 -3442,-1224 -860,-817 -1294,-1929 -1294,-3335 0,-2900 1733,-4586 5189,-5058l4156 -565c0,-1760 -915,-2638 -2746,-2638 -1807,0 -3507,546 -5105,1639l0 -3405zm4993 7360c-1597,211 -2396,930 -2396,2163 0,565 196,1023 584,1368 387,346 911,519 1564,519 907,0 1649,-318 2233,-958 584,-635 873,-1429 873,-2377l0 -1083 -2858 368z"/>
 </g>
</svg>
