<?xml version="1.0" encoding="UTF-8"?>
<!DOCTYPE svg PUBLIC "-//W3C//DTD SVG 1.1//EN" "http://www.w3.org/Graphics/SVG/1.1/DTD/svg11.dtd">
<!-- Creator: CorelDRAW X7 -->
<svg xmlns="http://www.w3.org/2000/svg" xml:space="preserve" width="27.8814mm" height="4.6699mm" version="1.1" style="shape-rendering:geometricPrecision; text-rendering:geometricPrecision; image-rendering:optimizeQuality; fill-rule:evenodd; clip-rule:evenodd"
viewBox="0 0 1646906 275843"
 xmlns:xlink="http://www.w3.org/1999/xlink">
 <defs>
  <style type="text/css">
   <![CDATA[
    .fil0 {fill:#E31E24;fill-rule:nonzero}
   ]]>
  </style>
 </defs>
 <g id="Слой_x0020_1">
  <metadata id="CorelCorpID_0Corel-Layer"/>
  <path class="fil0" d="M213555 256463l-44289 0 0 -67303 -125721 0 0 67303 -43545 0 0 -105886 16527 0c26504,-40870 40527,-89542 42063,-146070l125892 0 0 146070 29073 0 0 105886zm-83156 -105886l0 -107835 -29581 0c-2847,40296 -13444,76257 -31690,107835l61271 0zm105839 -52890c0,-30432 9114,-54313 27295,-71638 18240,-17384 42683,-26049 73410,-26049 29688,0 53286,8547 70782,25588 17496,17101 26214,40066 26214,68903 0,30267 -8949,54373 -26900,72271 -17897,17950 -42174,26899 -72778,26899 -30036,0 -53917,-8606 -71525,-25819 -17668,-17153 -26498,-40579 -26498,-70155zm54596 -685c0,36817 15045,55282 45081,55282 28837,0 43256,-18920 43256,-56818 0,-36026 -14537,-54089 -43598,-54089 -14135,0 -25081,4844 -32943,14537 -7862,9687 -11796,23367 -11796,41088zm319554 85318c-12883,7579 -31236,11341 -55058,11341 -28211,0 -50952,-8553 -68330,-25700 -17331,-17160 -26043,-39387 -26043,-66629 0,-31401 9339,-56139 28040,-74202 18748,-18128 43651,-27130 74827,-27130 21029,0 36646,2853 46729,8665l0 46274c-12304,-9061 -25813,-13562 -40403,-13562 -16474,0 -29693,5015 -39611,15045 -9976,10030 -14985,23769 -14985,41265 0,16864 4725,30208 14188,39954 9463,9740 22339,14643 38583,14643 14366,0 28383,-4619 42063,-13733l0 43769zm174056 -136607l-50096 0 0 143447 -54142 0 0 -143447 -50556 0 0 -41206 154794 0 0 41206zm203000 -41206l-76139 201180c-17673,46735 -44171,70156 -79500,70156 -13910,0 -24684,-1483 -32381,-4383l0 -43208c7242,4105 15222,6160 23881,6160 14708,0 25081,-7129 31064,-21376l10201 -24224 -74662 -184305 59789 0 36073 115691c2227,7011 3822,14873 4849,23539l963 0c804,-5872 2623,-13621 5529,-23202l36876 -116028 53457 0zm198847 184653l-54082 0 0 -146129 -67137 0 0 146129 -53918 0 0 -184653 175137 0 0 184653zm224548 0l-54082 0 0 -77964 -67137 0 0 77964 -53912 0 0 -184653 53912 0 0 69127 67137 0 0 -69127 54082 0 0 184653zm38359 -91473c0,-30432 9115,-54313 27302,-71638 18234,-17384 42682,-26049 73404,-26049 29688,0 53291,8547 70781,25588 17496,17101 26221,40066 26221,68903 0,30267 -8949,54373 -26900,72271 -17898,17950 -42175,26899 -72784,26899 -30030,0 -53911,-8606 -71526,-25819 -17661,-17153 -26498,-40579 -26498,-70155zm54597 -685c0,36817 15051,55282 45081,55282 28843,0 43256,-18920 43256,-56818 0,-36026 -14531,-54089 -43593,-54089 -14135,0 -25080,4844 -32942,14537 -7868,9687 -11802,23367 -11802,41088z"/>
 </g>
</svg>
