<?xml version="1.0" encoding="UTF-8"?>
<!DOCTYPE svg PUBLIC "-//W3C//DTD SVG 1.1//EN" "http://www.w3.org/Graphics/SVG/1.1/DTD/svg11.dtd">
<!-- Creator: CorelDRAW X7 -->
<svg xmlns="http://www.w3.org/2000/svg" xml:space="preserve" width="31.3376mm" height="7.2707mm" version="1.1" style="shape-rendering:geometricPrecision; text-rendering:geometricPrecision; image-rendering:optimizeQuality; fill-rule:evenodd; clip-rule:evenodd"
viewBox="0 0 76153 17668"
 xmlns:xlink="http://www.w3.org/1999/xlink">
 <defs>
  <style type="text/css">
   <![CDATA[
    .str0 {stroke:#EF7F1A;stroke-width:1215.04;stroke-linecap:round;stroke-linejoin:round}
    .fil0 {fill:none;fill-rule:nonzero}
    .fil1 {fill:#FEFEFE;fill-rule:nonzero}
   ]]>
  </style>
 </defs>
 <g id="Слой_x0020_1">
  <metadata id="CorelCorpID_0Corel-Layer"/>
  <g>
   <path class="fil0 str0" d="M8928 13086l-3000 0 -2817 -4189 -31 0 0 4189 -2472 0 0 -8467 2472 0 0 3912 31 0 2639 -3912 2948 0 -3138 3996 3368 4471zm8943 -8467l-3492 9225c-810,2143 -2025,3217 -3645,3217 -638,0 -1132,-68 -1485,-201l0 -1981c332,188 698,282 1095,282 675,0 1150,-327 1425,-980l467 -1111 -3423 -8451 2741 0 1654 5305c103,321 176,682 223,1079l44 0c37,-269 120,-624 253,-1063l1691 -5321 2452 0zm8895 8467l-2480 0 0 -6700 -1500 0c-332,2824 -818,4662 -1456,5516 -637,855 -1432,1283 -2380,1283 -363,0 -693,-52 -988,-159l0 -1709c199,86 403,130 612,130 491,0 912,-444 1264,-1335 351,-891 675,-2723 972,-5493l5956 0 0 8467zm2039 -11201c0,-378 133,-684 402,-922 267,-238 609,-355 1030,-355 428,0 773,120 1040,363 266,243 397,546 397,914 0,372 -133,683 -405,931 -269,248 -614,371 -1032,371 -416,0 -756,-126 -1027,-376 -269,-249 -405,-560 -405,-926zm183 11201l0 -8467 2464 0 0 8467 -2464 0zm12802 0l-2480 0 0 -3575 -3079 0 0 3575 -2472 0 0 -8467 2472 0 0 3170 3079 0 0 -3170 2480 0 0 8467zm2472 -7955c382,-214 894,-387 1534,-520 640,-133 1189,-198 1644,-198 2367,0 3551,1186 3551,3559l0 5114 -2349 0 0 -1234 -31 0c-578,962 -1422,1441 -2535,1441 -800,0 -1443,-228 -1926,-685 -481,-458 -724,-1079 -724,-1866 0,-1623 969,-2566 2903,-2830l2326 -317c0,-985 -512,-1476 -1537,-1476 -1011,0 -1962,306 -2856,917l0 -1905zm2794 4119c-894,117 -1341,520 -1341,1210 0,316 110,572 327,765 216,194 509,290 875,290 507,0 922,-177 1249,-535 327,-356 489,-800 489,-1330l0 -607 -1599 207zm8529 2817l0 4915 -2472 0 0 -12363 2472 0 0 1294 32 0c648,-1001 1562,-1500 2746,-1500 1080,0 1921,376 2527,1129 609,752 912,1776 912,3073 0,1413 -352,2548 -1055,3400 -706,852 -1629,1278 -2773,1278 -1035,0 -1821,-408 -2357,-1226l-32 0zm-39 -2726c0,604 165,1095 491,1479 327,382 751,575 1271,575 616,0 1100,-240 1442,-721 345,-478 517,-1158 517,-2036 0,-1552 -603,-2328 -1813,-2328 -562,0 -1019,214 -1375,643 -355,428 -533,980 -533,1654l0 734zm7788 -7456c0,-378 133,-684 402,-922 267,-238 609,-355 1030,-355 428,0 773,120 1040,363 266,243 397,546 397,914 0,372 -133,683 -405,931 -269,248 -614,371 -1032,371 -416,0 -756,-126 -1027,-376 -270,-249 -405,-560 -405,-926zm183 11201l0 -8467 2464 0 0 8467 -2464 0zm12028 0l-2448 0 0 -3209 -659 0c-470,0 -896,413 -1280,1233l-925 1976 -2758 0 1258 -2428c371,-713 883,-1170 1531,-1369 -1401,-235 -2099,-967 -2099,-2198 0,-1649 1187,-2472 3560,-2472l3820 0 0 8467zm-2448 -4717l0 -2143 -1059 0c-932,0 -1400,353 -1400,1056 0,726 465,1087 1392,1087l1067 0z"/>
   <path id="1" class="fil1" d="M8928 13086l-3000 0 -2817 -4189 -31 0 0 4189 -2472 0 0 -8467 2472 0 0 3912 31 0 2639 -3912 2948 0 -3138 3996 3368 4471zm8943 -8467l-3492 9225c-810,2143 -2025,3217 -3645,3217 -638,0 -1132,-68 -1485,-201l0 -1981c332,188 698,282 1095,282 675,0 1150,-327 1425,-980l467 -1111 -3423 -8451 2741 0 1654 5305c103,321 176,682 223,1079l44 0c37,-269 120,-624 253,-1063l1691 -5321 2452 0zm8895 8467l-2480 0 0 -6700 -1500 0c-332,2824 -818,4662 -1456,5516 -637,855 -1432,1283 -2380,1283 -363,0 -693,-52 -988,-159l0 -1709c199,86 403,130 612,130 491,0 912,-444 1264,-1335 351,-891 675,-2723 972,-5493l5956 0 0 8467zm2039 -11201c0,-378 133,-684 402,-922 267,-238 609,-355 1030,-355 428,0 773,120 1040,363 266,243 397,546 397,914 0,372 -133,683 -405,931 -269,248 -614,371 -1032,371 -416,0 -756,-126 -1027,-376 -269,-249 -405,-560 -405,-926zm183 11201l0 -8467 2464 0 0 8467 -2464 0zm12802 0l-2480 0 0 -3575 -3079 0 0 3575 -2472 0 0 -8467 2472 0 0 3170 3079 0 0 -3170 2480 0 0 8467zm2472 -7955c382,-214 894,-387 1534,-520 640,-133 1189,-198 1644,-198 2367,0 3551,1186 3551,3559l0 5114 -2349 0 0 -1234 -31 0c-578,962 -1422,1441 -2535,1441 -800,0 -1443,-228 -1926,-685 -481,-458 -724,-1079 -724,-1866 0,-1623 969,-2566 2903,-2830l2326 -317c0,-985 -512,-1476 -1537,-1476 -1011,0 -1962,306 -2856,917l0 -1905zm2794 4119c-894,117 -1341,520 -1341,1210 0,316 110,572 327,765 216,194 509,290 875,290 507,0 922,-177 1249,-535 327,-356 489,-800 489,-1330l0 -607 -1599 207zm8529 2817l0 4915 -2472 0 0 -12363 2472 0 0 1294 32 0c648,-1001 1562,-1500 2746,-1500 1080,0 1921,376 2527,1129 609,752 912,1776 912,3073 0,1413 -352,2548 -1055,3400 -706,852 -1629,1278 -2773,1278 -1035,0 -1821,-408 -2357,-1226l-32 0zm-39 -2726c0,604 165,1095 491,1479 327,382 751,575 1271,575 616,0 1100,-240 1442,-721 345,-478 517,-1158 517,-2036 0,-1552 -603,-2328 -1813,-2328 -562,0 -1019,214 -1375,643 -355,428 -533,980 -533,1654l0 734zm7788 -7456c0,-378 133,-684 402,-922 267,-238 609,-355 1030,-355 428,0 773,120 1040,363 266,243 397,546 397,914 0,372 -133,683 -405,931 -269,248 -614,371 -1032,371 -416,0 -756,-126 -1027,-376 -270,-249 -405,-560 -405,-926zm183 11201l0 -8467 2464 0 0 8467 -2464 0zm12028 0l-2448 0 0 -3209 -659 0c-470,0 -896,413 -1280,1233l-925 1976 -2758 0 1258 -2428c371,-713 883,-1170 1531,-1369 -1401,-235 -2099,-967 -2099,-2198 0,-1649 1187,-2472 3560,-2472l3820 0 0 8467zm-2448 -4717l0 -2143 -1059 0c-932,0 -1400,353 -1400,1056 0,726 465,1087 1392,1087l1067 0z"/>
  </g>
 </g>
</svg>
