<?xml version="1.0" encoding="UTF-8"?>
<!DOCTYPE svg PUBLIC "-//W3C//DTD SVG 1.1//EN" "http://www.w3.org/Graphics/SVG/1.1/DTD/svg11.dtd">
<!-- Creator: CorelDRAW X7 -->
<svg xmlns="http://www.w3.org/2000/svg" xml:space="preserve" width="54.2304mm" height="6.8555mm" version="1.1" style="shape-rendering:geometricPrecision; text-rendering:geometricPrecision; image-rendering:optimizeQuality; fill-rule:evenodd; clip-rule:evenodd"
viewBox="0 0 193039 24403"
 xmlns:xlink="http://www.w3.org/1999/xlink">
 <defs>
  <style type="text/css">
   <![CDATA[
    .fil0 {fill:#006CB5;fill-rule:nonzero}
   ]]>
  </style>
 </defs>
 <g id="Слой_x0020_1">
  <metadata id="CorelCorpID_0Corel-Layer"/>
  <path class="fil0" d="M11763 18638l-3633 0 0 -5236 -4509 0 0 5236 -3621 0 0 -12402 3621 0 0 4643 4509 0 0 -4643 3633 0 0 12402zm3621 -11652c559,-314 1309,-567 2247,-762 938,-195 1742,-291 2408,-291 3468,0 5203,1738 5203,5214l0 7491 -3442 0 0 -1807 -46 0c-846,1409 -2082,2110 -3713,2110 -1171,0 -2113,-334 -2821,-1003 -705,-670 -1061,-1581 -1061,-2733 0,-2378 1421,-3759 4253,-4146l3407 -463c0,-1444 -750,-2163 -2251,-2163 -1481,0 -2875,448 -4184,1343l0 -2790zm4092 6033c-1309,172 -1963,761 -1963,1772 0,463 160,838 478,1122 318,283 747,425 1282,425 743,0 1352,-261 1830,-785 479,-521 716,-1171 716,-1949l0 -888 -2343 303zm20637 5619l-3633 0 0 -9815 -4509 0 0 9815 -3621 0 0 -12402 11763 0 0 12402zm2993 -16406c0,-555 196,-1003 590,-1352 390,-348 892,-520 1508,-520 628,0 1133,176 1524,532 390,356 582,800 582,1340 0,543 -196,999 -594,1362 -394,364 -899,544 -1512,544 -609,0 -1106,-184 -1504,-551 -395,-364 -594,-819 -594,-1355zm269 16406l0 -12402 3609 0 0 12402 -3609 0zm7001 0l0 -12402 6748 0c2925,0 4387,1006 4387,3028 0,700 -226,1309 -677,1814 -456,509 -1061,842 -1822,999 941,134 1661,459 2162,976 502,517 750,1141 750,1872 0,1122 -402,2021 -1205,2699 -804,677 -1880,1014 -3235,1014l-7108 0zm3609 -10136l0 2702 2006 0c1214,0 1818,-474 1818,-1428 0,-849 -566,-1274 -1703,-1274l-2121 0zm0 4900l0 2924 2343 0c1271,0 1906,-509 1906,-1535 0,-926 -662,-1389 -1983,-1389l-2266 0zm20242 5393l0 5608 -3372 0 0 -5608 -574 0c-1968,0 -3533,-570 -4704,-1715 -1172,-1144 -1754,-2672 -1754,-4586 0,-1967 578,-3529 1742,-4685 1164,-1152 2745,-1730 4750,-1730l540 0 0 -5183 3372 0 0 5183 517 0c2018,0 3610,578 4778,1738 1167,1159 1749,2717 1749,4677 0,1918 -586,3449 -1753,4590 -1172,1141 -2745,1711 -4716,1711l-575 0zm0 -10136l0 7556 169 0c964,0 1738,-329 2323,-991 582,-663 873,-1578 873,-2741 0,-1176 -279,-2106 -834,-2794 -559,-690 -1329,-1030 -2316,-1030l-215 0zm-3372 7556l0 -7556 -203 0c-972,0 -1742,340 -2304,1030 -567,688 -846,1618 -846,2794 0,1133 287,2040 861,2718 578,677 1355,1014 2335,1014l157 0zm13221 -9229c560,-314 1310,-567 2248,-762 938,-195 1741,-291 2407,-291 3469,0 5203,1738 5203,5214l0 7491 -3442 0 0 -1807 -46 0c-846,1409 -2082,2110 -3713,2110 -1171,0 -2113,-334 -2821,-1003 -704,-670 -1060,-1581 -1060,-2733 0,-2378 1420,-3759 4253,-4146l3407 -463c0,-1444 -751,-2163 -2252,-2163 -1481,0 -2874,448 -4184,1343l0 -2790zm4093 6033c-1310,172 -1964,761 -1964,1772 0,463 161,838 479,1122 317,283 746,425 1282,425 743,0 1351,-261 1830,-785 478,-521 716,-1171 716,-1949l0 -888 -2343 303zm19706 -10114c-375,284 -896,479 -1558,582 -2021,314 -3319,559 -3893,735 -574,176 -1064,544 -1462,1102 -402,563 -674,1524 -816,2883l58 0c918,-1106 2166,-1658 3744,-1658 1722,0 3077,525 4073,1581 995,1053 1492,2504 1492,4353 0,1956 -600,3521 -1795,4697 -1198,1175 -2798,1761 -4800,1761 -2125,0 -3744,-686 -4858,-2052 -1114,-1367 -1669,-3350 -1669,-5945 0,-1979 222,-3636 674,-4961 448,-1328 1018,-2324 1715,-2982 693,-662 1428,-1122 2201,-1382 777,-256 1902,-498 3384,-723 1240,-188 2063,-341 2465,-464 406,-126 754,-268 1045,-432l0 2905zm-7782 7893l-12 448c-46,1750 207,3009 762,3771 551,762 1275,1144 2163,1144 831,0 1508,-321 2033,-964 520,-643 784,-1493 784,-2550 0,-1060 -268,-1902 -796,-2526 -532,-624 -1240,-938 -2121,-938 -555,0 -1091,146 -1611,440 -517,291 -919,682 -1202,1175zm15599 6347l0 7201 -3621 0 0 -18110 3621 0 0 1894 46 0c949,-1466 2289,-2197 4023,-2197 1581,0 2813,552 3701,1654 893,1102 1336,2603 1336,4501 0,2071 -516,3733 -1546,4981 -1034,1248 -2385,1872 -4061,1872 -1516,0 -2668,-598 -3453,-1796l-46 0zm-57 -3992c0,884 241,1604 719,2166 479,559 1099,842 1861,842 903,0 1611,-352 2113,-1056 505,-701 757,-1696 757,-2982 0,-2274 -884,-3411 -2656,-3411 -823,0 -1493,314 -2013,942 -521,628 -781,1435 -781,2423l0 1076zm23844 5485l-3289 0 0 -8322c-306,628 -639,1210 -995,1738l-4387 6584 -3441 0 0 -12402 3307 0 0 8073c284,-567 556,-1060 820,-1482l4405 -6591 3580 0 0 12402zm15518 0l-4394 0 -4127 -6136 -46 0 0 6136 -3621 0 0 -12402 3621 0 0 5730 46 0 3866 -5730 4318 0 -4597 5852 4934 6550zm1807 -11652c559,-314 1309,-567 2247,-762 938,-195 1741,-291 2407,-291 3469,0 5203,1738 5203,5214l0 7491 -3442 0 0 -1807 -46 0c-846,1409 -2082,2110 -3713,2110 -1171,0 -2113,-334 -2821,-1003 -704,-670 -1060,-1581 -1060,-2733 0,-2378 1420,-3759 4253,-4146l3407 -463c0,-1444 -751,-2163 -2251,-2163 -1482,0 -2875,448 -4184,1343l0 -2790zm4092 6033c-1310,172 -1964,761 -1964,1772 0,463 161,838 479,1122 317,283 746,425 1282,425 743,0 1351,-261 1830,-785 478,-521 716,-1171 716,-1949l0 -888 -2343 303zm17991 -4016l-3365 0 0 9635 -3636 0 0 -9635 -3396 0 0 -2767 10397 0 0 2767zm14152 9635l-3288 0 0 -8322c-307,628 -639,1210 -996,1738l-4386 6584 -3442 0 0 -12402 3308 0 0 8073c283,-567 555,-1060 819,-1482l4406 -6591 3579 0 0 12402z"/>
 </g>
</svg>
