<?xml version="1.0" encoding="UTF-8"?>
<!DOCTYPE svg PUBLIC "-//W3C//DTD SVG 1.1//EN" "http://www.w3.org/Graphics/SVG/1.1/DTD/svg11.dtd">
<!-- Creator: CorelDRAW X7 -->
<svg xmlns="http://www.w3.org/2000/svg" xml:space="preserve" width="34.5217mm" height="14.5532mm" version="1.1" style="shape-rendering:geometricPrecision; text-rendering:geometricPrecision; image-rendering:optimizeQuality; fill-rule:evenodd; clip-rule:evenodd"
viewBox="0 0 106723 44991"
 xmlns:xlink="http://www.w3.org/1999/xlink">
 <defs>
  <style type="text/css">
   <![CDATA[
    .str0 {stroke:#FEFEFE;stroke-width:1545.73;stroke-linecap:round;stroke-linejoin:round}
    .fil0 {fill:none;fill-rule:nonzero}
    .fil1 {fill:#009846;fill-rule:nonzero}
   ]]>
  </style>
 </defs>
 <g id="Слой_x0020_1">
  <metadata id="CorelCorpID_0Corel-Layer"/>
  <g>
   <path class="fil0 str0" d="M10989 16648l-3155 0 0 -8525 -3916 0 0 8525 -3145 0 0 -10772 10216 0 0 10772zm2600 -14249c0,-482 169,-871 512,-1174 339,-303 775,-452 1310,-452 545,0 984,153 1323,462 339,309 505,695 505,1164 0,472 -169,867 -515,1183 -343,316 -781,472 -1313,472 -529,0 -961,-159 -1307,-478 -342,-316 -515,-712 -515,-1177zm233 14249l0 -10772 3134 0 0 10772 -3134 0zm14142 -399c-751,442 -1822,661 -3212,661 -1645,0 -2972,-499 -3986,-1499 -1010,-1001 -1519,-2297 -1519,-3887 0,-1831 545,-3274 1636,-4328 1094,-1057 2546,-1583 4365,-1583 1226,0 2137,167 2726,506l0 2699c-718,-528 -1506,-791 -2357,-791 -961,0 -1732,293 -2311,878 -582,585 -874,1386 -874,2407 0,984 276,1762 828,2330 552,569 1303,854 2250,854 838,0 1656,-269 2454,-801l0 2554zm12450 399l-3155 0 0 -4548 -3916 0 0 4548 -3145 0 0 -10772 3145 0 0 4033 3916 0 0 -4033 3155 0 0 10772zm3145 -10120c486,-273 1137,-492 1952,-662 814,-169 1512,-253 2091,-253 3012,0 4518,1510 4518,4529l0 6506 -2989 0 0 -1570 -40 0c-735,1224 -1808,1832 -3224,1832 -1018,0 -1836,-289 -2451,-871 -612,-582 -921,-1373 -921,-2373 0,-2065 1234,-3265 3694,-3601l2959 -402c0,-1254 -652,-1879 -1955,-1879 -1287,0 -2497,389 -3634,1167l0 -2423zm3554 5239c-1137,150 -1705,662 -1705,1539 0,403 139,728 415,974 276,246 649,370 1114,370 645,0 1173,-226 1589,-682 416,-452 622,-1017 622,-1692l0 -771 -2035 262zm-36124 27394l-3155 0 0 -8524 -3916 0 0 8524 -3145 0 0 -10771 10216 0 0 10771zm6027 -1296l0 6253 -3145 0 0 -15728 3145 0 0 1645 40 0c825,-1273 1988,-1908 3494,-1908 1373,0 2444,479 3215,1436 775,958 1160,2261 1160,3910 0,1798 -448,3241 -1343,4325 -897,1084 -2071,1626 -3527,1626 -1316,0 -2317,-519 -2999,-1559l-40 0zm-49 -3468c0,768 209,1393 624,1882 416,485 955,731 1616,731 785,0 1400,-306 1835,-917 439,-609 659,-1473 659,-2590 0,-1975 -768,-2962 -2308,-2962 -714,0 -1296,272 -1748,818 -452,545 -678,1246 -678,2104l0 934zm9544 -572c0,-1775 532,-3168 1593,-4178 1063,-1014 2489,-1520 4282,-1520 1731,0 3108,499 4129,1493 1020,997 1529,2337 1529,4019 0,1765 -522,3172 -1569,4216 -1044,1047 -2461,1569 -4246,1569 -1752,0 -3145,-502 -4172,-1506 -1030,-1001 -1546,-2367 -1546,-4093zm3185 -40c0,2148 878,3225 2630,3225 1682,0 2523,-1104 2523,-3314 0,-2102 -848,-3155 -2543,-3155 -825,0 -1463,282 -1922,848 -459,565 -688,1363 -688,2396zm21769 9302l-2583 0 0 -3926 -7334 0 0 3926 -2540 0 0 -6176 964 0c1546,-2384 2364,-5223 2453,-8521l7344 0 0 8521 1696 0 0 6176zm-4851 -6176l0 -6291 -1725 0c-166,2351 -785,4449 -1849,6291l3574 0zm16889 -8521l-4442 11735c-1031,2726 -2576,4093 -4637,4093 -812,0 -1440,-87 -1889,-256l0 -2520c422,239 888,359 1393,359 858,0 1463,-416 1812,-1247l595 -1413 -4355 -10751 3487 0 2105 6749c130,409 223,867 283,1372l56 0c47,-342 153,-794 322,-1353l2151 -6768 3119 0zm11968 10771l-3816 0 -3584 -5329 -40 0 0 5329 -3145 0 0 -10771 3145 0 0 4976 40 0 3357 -4976 3751 0 -3993 5083 4285 5688zm13238 3926l-2573 0 0 -3926 -9359 0 0 -10771 3145 0 0 8521 3917 0 0 -8521 3154 0 0 8521 1716 0 0 6176zm1706 -18175c0,-482 169,-871 511,-1173 340,-303 775,-453 1310,-453 546,0 984,153 1323,463 340,309 506,695 506,1163 0,472 -170,868 -515,1184 -343,316 -782,472 -1314,472 -528,0 -961,-160 -1306,-479 -343,-316 -515,-711 -515,-1177zm232 14249l0 -10771 3135 0 0 10771 -3135 0zm15303 0l-3115 0 0 -4082 -838 0c-599,0 -1140,525 -1629,1569l-1177 2513 -3507 0 1599 -3088c472,-908 1124,-1490 1948,-1742 -1782,-300 -2670,-1230 -2670,-2796 0,-2098 1510,-3145 4528,-3145l4861 0 0 10771zm-3115 -6001l0 -2726 -1347 0c-1186,0 -1781,449 -1781,1343 0,925 591,1383 1771,1383l1357 0z"/>
   <path id="1" class="fil1" d="M10989 16648l-3155 0 0 -8525 -3916 0 0 8525 -3145 0 0 -10772 10216 0 0 10772zm2600 -14249c0,-482 169,-871 512,-1174 339,-303 775,-452 1310,-452 545,0 984,153 1323,462 339,309 505,695 505,1164 0,472 -169,867 -515,1183 -343,316 -781,472 -1313,472 -529,0 -961,-159 -1307,-478 -342,-316 -515,-712 -515,-1177zm233 14249l0 -10772 3134 0 0 10772 -3134 0zm14142 -399c-751,442 -1822,661 -3212,661 -1645,0 -2972,-499 -3986,-1499 -1010,-1001 -1519,-2297 -1519,-3887 0,-1831 545,-3274 1636,-4328 1094,-1057 2546,-1583 4365,-1583 1226,0 2137,167 2726,506l0 2699c-718,-528 -1506,-791 -2357,-791 -961,0 -1732,293 -2311,878 -582,585 -874,1386 -874,2407 0,984 276,1762 828,2330 552,569 1303,854 2250,854 838,0 1656,-269 2454,-801l0 2554zm12450 399l-3155 0 0 -4548 -3916 0 0 4548 -3145 0 0 -10772 3145 0 0 4033 3916 0 0 -4033 3155 0 0 10772zm3145 -10120c486,-273 1137,-492 1952,-662 814,-169 1512,-253 2091,-253 3012,0 4518,1510 4518,4529l0 6506 -2989 0 0 -1570 -40 0c-735,1224 -1808,1832 -3224,1832 -1018,0 -1836,-289 -2451,-871 -612,-582 -921,-1373 -921,-2373 0,-2065 1234,-3265 3694,-3601l2959 -402c0,-1254 -652,-1879 -1955,-1879 -1287,0 -2497,389 -3634,1167l0 -2423zm3554 5239c-1137,150 -1705,662 -1705,1539 0,403 139,728 415,974 276,246 649,370 1114,370 645,0 1173,-226 1589,-682 416,-452 622,-1017 622,-1692l0 -771 -2035 262zm-36124 27394l-3155 0 0 -8524 -3916 0 0 8524 -3145 0 0 -10771 10216 0 0 10771zm6027 -1296l0 6253 -3145 0 0 -15728 3145 0 0 1645 40 0c825,-1273 1988,-1908 3494,-1908 1373,0 2444,479 3215,1436 775,958 1160,2261 1160,3910 0,1798 -448,3241 -1343,4325 -897,1084 -2071,1626 -3527,1626 -1316,0 -2317,-519 -2999,-1559l-40 0zm-49 -3468c0,768 209,1393 624,1882 416,485 955,731 1616,731 785,0 1400,-306 1835,-917 439,-609 659,-1473 659,-2590 0,-1975 -768,-2962 -2308,-2962 -714,0 -1296,272 -1748,818 -452,545 -678,1246 -678,2104l0 934zm9544 -572c0,-1775 532,-3168 1593,-4178 1063,-1014 2489,-1520 4282,-1520 1731,0 3108,499 4129,1493 1020,997 1529,2337 1529,4019 0,1765 -522,3172 -1569,4216 -1044,1047 -2461,1569 -4246,1569 -1752,0 -3145,-502 -4172,-1506 -1030,-1001 -1546,-2367 -1546,-4093zm3185 -40c0,2148 878,3225 2630,3225 1682,0 2523,-1104 2523,-3314 0,-2102 -848,-3155 -2543,-3155 -825,0 -1463,282 -1922,848 -459,565 -688,1363 -688,2396zm21769 9302l-2583 0 0 -3926 -7334 0 0 3926 -2540 0 0 -6176 964 0c1546,-2384 2364,-5223 2453,-8521l7344 0 0 8521 1696 0 0 6176zm-4851 -6176l0 -6291 -1725 0c-166,2351 -785,4449 -1849,6291l3574 0zm16889 -8521l-4442 11735c-1031,2726 -2576,4093 -4637,4093 -812,0 -1440,-87 -1889,-256l0 -2520c422,239 888,359 1393,359 858,0 1463,-416 1812,-1247l595 -1413 -4355 -10751 3487 0 2105 6749c130,409 223,867 283,1372l56 0c47,-342 153,-794 322,-1353l2151 -6768 3119 0zm11968 10771l-3816 0 -3584 -5329 -40 0 0 5329 -3145 0 0 -10771 3145 0 0 4976 40 0 3357 -4976 3751 0 -3993 5083 4285 5688zm13238 3926l-2573 0 0 -3926 -9359 0 0 -10771 3145 0 0 8521 3917 0 0 -8521 3154 0 0 8521 1716 0 0 6176zm1706 -18175c0,-482 169,-871 511,-1173 340,-303 775,-453 1310,-453 546,0 984,153 1323,463 340,309 506,695 506,1163 0,472 -170,868 -515,1184 -343,316 -782,472 -1314,472 -528,0 -961,-160 -1306,-479 -343,-316 -515,-711 -515,-1177zm232 14249l0 -10771 3135 0 0 10771 -3135 0zm15303 0l-3115 0 0 -4082 -838 0c-599,0 -1140,525 -1629,1569l-1177 2513 -3507 0 1599 -3088c472,-908 1124,-1490 1948,-1742 -1782,-300 -2670,-1230 -2670,-2796 0,-2098 1510,-3145 4528,-3145l4861 0 0 10771zm-3115 -6001l0 -2726 -1347 0c-1186,0 -1781,449 -1781,1343 0,925 591,1383 1771,1383l1357 0z"/>
  </g>
 </g>
</svg>
