<?xml version="1.0" encoding="UTF-8"?>
<!DOCTYPE svg PUBLIC "-//W3C//DTD SVG 1.1//EN" "http://www.w3.org/Graphics/SVG/1.1/DTD/svg11.dtd">
<!-- Creator: CorelDRAW X7 -->
<svg xmlns="http://www.w3.org/2000/svg" xml:space="preserve" width="44.3076mm" height="15.3306mm" version="1.1" style="shape-rendering:geometricPrecision; text-rendering:geometricPrecision; image-rendering:optimizeQuality; fill-rule:evenodd; clip-rule:evenodd"
viewBox="0 0 172144 59562"
 xmlns:xlink="http://www.w3.org/1999/xlink">
 <defs>
  <style type="text/css">
   <![CDATA[
    .str0 {stroke:#FEFEFE;stroke-width:296.052;stroke-linecap:round;stroke-linejoin:round}
    .fil0 {fill:none;fill-rule:nonzero}
    .fil1 {fill:#006CB5;fill-rule:nonzero}
   ]]>
  </style>
 </defs>
 <g id="Слой_x0020_1">
  <metadata id="CorelCorpID_0Corel-Layer"/>
  <g>
   <path class="fil0 str0" d="M13451 20099l-4796 0 -4504 -6698 -51 0 0 6698 -3952 0 0 -13537 3952 0 0 6254 51 0 4219 -6254 4713 0 -5018 6388 5386 7149zm831 -6706c0,-2231 669,-3982 2002,-5252 1337,-1274 3129,-1910 5381,-1910 2177,0 3907,627 5189,1876 1283,1254 1922,2937 1922,5052 0,2218 -656,3986 -1972,5298 -1312,1316 -3092,1972 -5336,1972 -2201,0 -3952,-631 -5243,-1893 -1295,-1258 -1943,-2975 -1943,-5143zm4003 -50c0,2699 1103,4052 3305,4052 2114,0 3171,-1387 3171,-4165 0,-2641 -1066,-3965 -3196,-3965 -1036,0 -1839,355 -2415,1065 -577,711 -865,1713 -865,3013zm26121 6756l-3965 0 0 -5716 -4922 0 0 5716 -3952 0 0 -13537 3952 0 0 5068 4922 0 0 -5068 3965 0 0 13537zm17699 4934l-3247 0 0 -4934 -9217 0 0 4934 -3192 0 0 -7763 1212 0c1943,-2996 2971,-6564 3083,-10708l9230 0 0 10708 2131 0 0 7763zm-6096 -7763l0 -7905 -2169 0c-209,2954 -986,5590 -2323,7905l4492 0zm21788 2829l-3589 0 0 -9084c-334,686 -697,1321 -1086,1897l-4788 7187 -3756 0 0 -13537 3610 0 0 8811c309,-618 606,-1157 894,-1617l4809 -7194 3906 0 0 13537zm13588 -10517l-3673 0 0 10517 -3969 0 0 -10517 -3706 0 0 -3020 11348 0 0 3020zm14247 4859l-8912 0c138,2098 1403,3147 3793,3147 1492,0 2812,-364 3953,-1099l0 2899c-1233,694 -2845,1041 -4847,1041 -2151,0 -3827,-606 -5022,-1822 -1199,-1216 -1796,-2912 -1796,-5081 0,-2164 639,-3919 1909,-5268 1274,-1354 2875,-2027 4800,-2027 1918,0 3418,581 4496,1743 1082,1161 1626,2762 1626,4792l0 1675zm-3686 -2469c0,-2026 -819,-3037 -2460,-3037 -677,0 -1279,280 -1801,831 -522,556 -848,1291 -978,2206l5239 0zm10207 6497l0 7859 -3952 0 0 -19766 3952 0 0 2068 50 0c1037,-1601 2499,-2399 4391,-2399 1726,0 3071,602 4041,1806 973,1203 1458,2840 1458,4913 0,2260 -564,4073 -1688,5436 -1128,1362 -2603,2043 -4433,2043 -1654,0 -2912,-652 -3769,-1960l-50 0zm-62 -4358c0,966 263,1751 785,2365 523,610 1199,919 2031,919 986,0 1759,-384 2306,-1153 551,-765 827,-1851 827,-3255 0,-2481 -965,-3722 -2899,-3722 -899,0 -1630,342 -2198,1028 -568,685 -852,1566 -852,2644l0 1174zm22950 5486c-944,556 -2290,832 -4036,832 -2068,0 -3736,-627 -5010,-1885 -1270,-1257 -1909,-2887 -1909,-4884 0,-2302 685,-4115 2056,-5440 1374,-1328 3200,-1989 5485,-1989 1542,0 2687,209 3426,636l0 3392c-902,-664 -1892,-994 -2962,-994 -1208,0 -2177,368 -2904,1103 -731,735 -1099,1742 -1099,3025 0,1236 347,2214 1041,2929 693,714 1638,1073 2828,1073 1053,0 2081,-338 3084,-1006l0 3208zm2807 502l0 -13537 3953 0 0 4784 3572 0c1529,0 2712,376 3556,1119 848,748 1270,1788 1270,3117 0,1362 -422,2457 -1262,3280 -840,823 -2001,1237 -3476,1237l-7613 0zm3953 -6205l0 3635 2156 0c1450,0 2177,-627 2177,-1876 0,-1174 -715,-1759 -2144,-1759l-2189 0zm24320 6205l-4796 0 -4504 -6698 -50 0 0 6698 -3952 0 0 -13537 3952 0 0 6254 50 0 4220 -6254 4713 0 -5018 6388 5385 7149zm1287 -17908c0,-605 213,-1094 644,-1475 426,-380 973,-568 1646,-568 685,0 1236,192 1663,581 426,388 635,873 635,1462 0,594 -213,1091 -648,1488 -430,397 -982,593 -1650,593 -665,0 -1208,-201 -1642,-602 -431,-397 -648,-894 -648,-1479zm293 17908l0 -13537 3939 0 0 13537 -3939 0zm-167541 33086l0 -13537 7366 0c3192,0 4789,1099 4789,3305 0,764 -247,1429 -740,1980 -497,556 -1157,919 -1989,1091 1028,146 1814,501 2361,1065 547,564 819,1245 819,2043 0,1224 -439,2206 -1316,2946 -878,739 -2052,1107 -3531,1107l-7759 0zm3940 -11064l0 2950 2190 0c1324,0 1984,-518 1984,-1558 0,-928 -618,-1392 -1859,-1392l-2315 0zm0 5348l0 3192 2557 0c1388,0 2081,-556 2081,-1675 0,-1011 -723,-1517 -2164,-1517l-2474 0zm24814 5716l-3589 0 0 -9083c-334,685 -697,1320 -1086,1896l-4788 7187 -3756 0 0 -13537 3609 0 0 8811c310,-618 606,-1157 895,-1616l4808 -7195 3907 0 0 13537zm7587 -1630l0 7859 -3952 0 0 -19766 3952 0 0 2068 51 0c1036,-1600 2498,-2398 4391,-2398 1725,0 3070,602 4040,1805 973,1203 1458,2841 1458,4913 0,2261 -564,4074 -1688,5436 -1128,1362 -2603,2043 -4433,2043 -1654,0 -2912,-652 -3768,-1960l-51 0zm-62 -4357c0,965 263,1750 785,2364 523,610 1199,920 2031,920 986,0 1759,-385 2306,-1154 551,-764 827,-1850 827,-3254 0,-2482 -965,-3723 -2899,-3723 -898,0 -1630,343 -2198,1028 -568,685 -852,1567 -852,2645l0 1174zm11995 -719c0,-2231 668,-3982 2001,-5252 1337,-1274 3129,-1909 5382,-1909 2176,0 3906,627 5189,1876 1282,1253 1922,2937 1922,5051 0,2219 -656,3986 -1972,5298 -1312,1316 -3092,1972 -5336,1972 -2202,0 -3952,-631 -5243,-1893 -1295,-1257 -1943,-2975 -1943,-5143zm4003 -50c0,2699 1103,4053 3304,4053 2115,0 3171,-1387 3171,-4166 0,-2641 -1065,-3965 -3196,-3965 -1036,0 -1838,355 -2415,1066 -576,710 -864,1713 -864,3012zm25105 -10416c-409,309 -977,522 -1700,635 -2206,343 -3622,610 -4249,802 -627,193 -1162,593 -1596,1203 -439,615 -736,1663 -890,3147l63 0c1002,-1208 2364,-1810 4086,-1810 1880,0 3359,573 4445,1726 1087,1149 1630,2733 1630,4751 0,2135 -656,3843 -1960,5126 -1308,1283 -3054,1922 -5239,1922 -2319,0 -4086,-748 -5302,-2240 -1216,-1491 -1822,-3655 -1822,-6488 0,-2160 242,-3969 735,-5415 490,-1450 1112,-2536 1872,-3254 757,-723 1559,-1225 2403,-1509 848,-280 2076,-543 3693,-789 1354,-205 2252,-372 2691,-506 443,-138 823,-293 1140,-472l0 3171zm-8493 8615l-13 489c-50,1909 225,3284 831,4115 602,832 1391,1250 2361,1250 907,0 1646,-351 2219,-1053 568,-702 856,-1630 856,-2783 0,-1157 -293,-2076 -869,-2757 -581,-681 -1354,-1024 -2315,-1024 -606,0 -1190,159 -1759,481 -564,317 -1003,743 -1311,1282zm26292 8557l-3589 0 0 -9083c-334,685 -697,1320 -1086,1896l-4788 7187 -3756 0 0 -13537 3610 0 0 8811c309,-618 606,-1157 894,-1616l4809 -7195 3906 0 0 13537z"/>
   <path id="1" class="fil1" d="M13451 20099l-4796 0 -4504 -6698 -51 0 0 6698 -3952 0 0 -13537 3952 0 0 6254 51 0 4219 -6254 4713 0 -5018 6388 5386 7149zm831 -6706c0,-2231 669,-3982 2002,-5252 1337,-1274 3129,-1910 5381,-1910 2177,0 3907,627 5189,1876 1283,1254 1922,2937 1922,5052 0,2218 -656,3986 -1972,5298 -1312,1316 -3092,1972 -5336,1972 -2201,0 -3952,-631 -5243,-1893 -1295,-1258 -1943,-2975 -1943,-5143zm4003 -50c0,2699 1103,4052 3305,4052 2114,0 3171,-1387 3171,-4165 0,-2641 -1066,-3965 -3196,-3965 -1036,0 -1839,355 -2415,1065 -577,711 -865,1713 -865,3013zm26121 6756l-3965 0 0 -5716 -4922 0 0 5716 -3952 0 0 -13537 3952 0 0 5068 4922 0 0 -5068 3965 0 0 13537zm17699 4934l-3247 0 0 -4934 -9217 0 0 4934 -3192 0 0 -7763 1212 0c1943,-2996 2971,-6564 3083,-10708l9230 0 0 10708 2131 0 0 7763zm-6096 -7763l0 -7905 -2169 0c-209,2954 -986,5590 -2323,7905l4492 0zm21788 2829l-3589 0 0 -9084c-334,686 -697,1321 -1086,1897l-4788 7187 -3756 0 0 -13537 3610 0 0 8811c309,-618 606,-1157 894,-1617l4809 -7194 3906 0 0 13537zm13588 -10517l-3673 0 0 10517 -3969 0 0 -10517 -3706 0 0 -3020 11348 0 0 3020zm14247 4859l-8912 0c138,2098 1403,3147 3793,3147 1492,0 2812,-364 3953,-1099l0 2899c-1233,694 -2845,1041 -4847,1041 -2151,0 -3827,-606 -5022,-1822 -1199,-1216 -1796,-2912 -1796,-5081 0,-2164 639,-3919 1909,-5268 1274,-1354 2875,-2027 4800,-2027 1918,0 3418,581 4496,1743 1082,1161 1626,2762 1626,4792l0 1675zm-3686 -2469c0,-2026 -819,-3037 -2460,-3037 -677,0 -1279,280 -1801,831 -522,556 -848,1291 -978,2206l5239 0zm10207 6497l0 7859 -3952 0 0 -19766 3952 0 0 2068 50 0c1037,-1601 2499,-2399 4391,-2399 1726,0 3071,602 4041,1806 973,1203 1458,2840 1458,4913 0,2260 -564,4073 -1688,5436 -1128,1362 -2603,2043 -4433,2043 -1654,0 -2912,-652 -3769,-1960l-50 0zm-62 -4358c0,966 263,1751 785,2365 523,610 1199,919 2031,919 986,0 1759,-384 2306,-1153 551,-765 827,-1851 827,-3255 0,-2481 -965,-3722 -2899,-3722 -899,0 -1630,342 -2198,1028 -568,685 -852,1566 -852,2644l0 1174zm22950 5486c-944,556 -2290,832 -4036,832 -2068,0 -3736,-627 -5010,-1885 -1270,-1257 -1909,-2887 -1909,-4884 0,-2302 685,-4115 2056,-5440 1374,-1328 3200,-1989 5485,-1989 1542,0 2687,209 3426,636l0 3392c-902,-664 -1892,-994 -2962,-994 -1208,0 -2177,368 -2904,1103 -731,735 -1099,1742 -1099,3025 0,1236 347,2214 1041,2929 693,714 1638,1073 2828,1073 1053,0 2081,-338 3084,-1006l0 3208zm2807 502l0 -13537 3953 0 0 4784 3572 0c1529,0 2712,376 3556,1119 848,748 1270,1788 1270,3117 0,1362 -422,2457 -1262,3280 -840,823 -2001,1237 -3476,1237l-7613 0zm3953 -6205l0 3635 2156 0c1450,0 2177,-627 2177,-1876 0,-1174 -715,-1759 -2144,-1759l-2189 0zm24320 6205l-4796 0 -4504 -6698 -50 0 0 6698 -3952 0 0 -13537 3952 0 0 6254 50 0 4220 -6254 4713 0 -5018 6388 5385 7149zm1287 -17908c0,-605 213,-1094 644,-1475 426,-380 973,-568 1646,-568 685,0 1236,192 1663,581 426,388 635,873 635,1462 0,594 -213,1091 -648,1488 -430,397 -982,593 -1650,593 -665,0 -1208,-201 -1642,-602 -431,-397 -648,-894 -648,-1479zm293 17908l0 -13537 3939 0 0 13537 -3939 0zm-167541 33086l0 -13537 7366 0c3192,0 4789,1099 4789,3305 0,764 -247,1429 -740,1980 -497,556 -1157,919 -1989,1091 1028,146 1814,501 2361,1065 547,564 819,1245 819,2043 0,1224 -439,2206 -1316,2946 -878,739 -2052,1107 -3531,1107l-7759 0zm3940 -11064l0 2950 2190 0c1324,0 1984,-518 1984,-1558 0,-928 -618,-1392 -1859,-1392l-2315 0zm0 5348l0 3192 2557 0c1388,0 2081,-556 2081,-1675 0,-1011 -723,-1517 -2164,-1517l-2474 0zm24814 5716l-3589 0 0 -9083c-334,685 -697,1320 -1086,1896l-4788 7187 -3756 0 0 -13537 3609 0 0 8811c310,-618 606,-1157 895,-1616l4808 -7195 3907 0 0 13537zm7587 -1630l0 7859 -3952 0 0 -19766 3952 0 0 2068 51 0c1036,-1600 2498,-2398 4391,-2398 1725,0 3070,602 4040,1805 973,1203 1458,2841 1458,4913 0,2261 -564,4074 -1688,5436 -1128,1362 -2603,2043 -4433,2043 -1654,0 -2912,-652 -3768,-1960l-51 0zm-62 -4357c0,965 263,1750 785,2364 523,610 1199,920 2031,920 986,0 1759,-385 2306,-1154 551,-764 827,-1850 827,-3254 0,-2482 -965,-3723 -2899,-3723 -898,0 -1630,343 -2198,1028 -568,685 -852,1567 -852,2645l0 1174zm11995 -719c0,-2231 668,-3982 2001,-5252 1337,-1274 3129,-1909 5382,-1909 2176,0 3906,627 5189,1876 1282,1253 1922,2937 1922,5051 0,2219 -656,3986 -1972,5298 -1312,1316 -3092,1972 -5336,1972 -2202,0 -3952,-631 -5243,-1893 -1295,-1257 -1943,-2975 -1943,-5143zm4003 -50c0,2699 1103,4053 3304,4053 2115,0 3171,-1387 3171,-4166 0,-2641 -1065,-3965 -3196,-3965 -1036,0 -1838,355 -2415,1066 -576,710 -864,1713 -864,3012zm25105 -10416c-409,309 -977,522 -1700,635 -2206,343 -3622,610 -4249,802 -627,193 -1162,593 -1596,1203 -439,615 -736,1663 -890,3147l63 0c1002,-1208 2364,-1810 4086,-1810 1880,0 3359,573 4445,1726 1087,1149 1630,2733 1630,4751 0,2135 -656,3843 -1960,5126 -1308,1283 -3054,1922 -5239,1922 -2319,0 -4086,-748 -5302,-2240 -1216,-1491 -1822,-3655 -1822,-6488 0,-2160 242,-3969 735,-5415 490,-1450 1112,-2536 1872,-3254 757,-723 1559,-1225 2403,-1509 848,-280 2076,-543 3693,-789 1354,-205 2252,-372 2691,-506 443,-138 823,-293 1140,-472l0 3171zm-8493 8615l-13 489c-50,1909 225,3284 831,4115 602,832 1391,1250 2361,1250 907,0 1646,-351 2219,-1053 568,-702 856,-1630 856,-2783 0,-1157 -293,-2076 -869,-2757 -581,-681 -1354,-1024 -2315,-1024 -606,0 -1190,159 -1759,481 -564,317 -1003,743 -1311,1282zm26292 8557l-3589 0 0 -9083c-334,685 -697,1320 -1086,1896l-4788 7187 -3756 0 0 -13537 3610 0 0 8811c309,-618 606,-1157 894,-1616l4809 -7195 3906 0 0 13537z"/>
  </g>
 </g>
</svg>
